<svg width="16" height="16" viewBox="0 0 16 16" fill="none" xmlns="http://www.w3.org/2000/svg">
<path fill-rule="evenodd" clip-rule="evenodd" d="M8 16C12.4183 16 16 12.4183 16 8C16 3.58172 12.4183 0 8 0C3.58172 0 0 3.58172 0 8C0 12.4183 3.58172 16 8 16Z" fill="#2E5BFF"/>
<path fill-rule="evenodd" clip-rule="evenodd" d="M11.8775 6.15369L7.09155 10.9675C6.78331 11.2775 6.2843 11.2775 5.97685 10.9675L3.97766 8.95743C3.67021 8.6474 3.67021 8.14549 3.97766 7.83546C4.28589 7.52622 4.7849 7.52622 5.09235 7.83546L6.5342 9.2857L10.7628 5.03251C11.0702 4.72248 11.5692 4.72248 11.8775 5.03251C12.1857 5.34175 12.1857 5.84366 11.8775 6.15369Z" fill="white"/>
</svg>
