<svg width="14" height="14" viewBox="0 0 14 14" fill="none" xmlns="http://www.w3.org/2000/svg">
<path d="M11.6663 0.333336H2.33301C1.80257 0.333336 1.29387 0.54405 0.918794 0.919122C0.543722 1.2942 0.333008 1.8029 0.333008 2.33334V3.11334C0.332912 3.38863 0.389652 3.66098 0.499675 3.91334V3.95334C0.593861 4.16732 0.727269 4.36178 0.893008 4.52667L4.99967 8.60667V13C4.99945 13.1133 5.0281 13.2248 5.08292 13.3239C5.13775 13.4231 5.21693 13.5066 5.31301 13.5667C5.4191 13.6324 5.54152 13.6671 5.66634 13.6667C5.7707 13.666 5.87346 13.6409 5.96634 13.5933L8.63301 12.26C8.74295 12.2046 8.83541 12.1198 8.90013 12.0151C8.96485 11.9104 8.9993 11.7898 8.99967 11.6667V8.60667L13.0797 4.52667C13.2454 4.36178 13.3788 4.16732 13.473 3.95334V3.91334C13.5922 3.66296 13.6581 3.39052 13.6663 3.11334V2.33334C13.6663 1.8029 13.4556 1.2942 13.0806 0.919122C12.7055 0.54405 12.1968 0.333336 11.6663 0.333336ZM7.85967 7.86C7.79789 7.9223 7.749 7.99617 7.71583 8.0774C7.68265 8.15862 7.66583 8.2456 7.66634 8.33334V11.2533L6.33301 11.92V8.33334C6.33352 8.2456 6.3167 8.15862 6.28352 8.0774C6.25035 7.99617 6.20146 7.9223 6.13967 7.86L2.60634 4.33334H11.393L7.85967 7.86ZM12.333 3H1.66634V2.33334C1.66634 2.15652 1.73658 1.98696 1.8616 1.86193C1.98663 1.73691 2.1562 1.66667 2.33301 1.66667H11.6663C11.8432 1.66667 12.0127 1.73691 12.1377 1.86193C12.2628 1.98696 12.333 2.15652 12.333 2.33334V3Z" fill="#3365FC"/>
</svg>
