<svg width="89" height="33" viewBox="0 0 89 33" fill="none" xmlns="http://www.w3.org/2000/svg">
<path d="M59.4254 0L62.6198 1.31883L88.3516 30.5089C89.2016 31.476 88.5275 33 87.238 33H30.3818L59.4254 0Z" fill="#2044A0"/>
<path d="M28.7114 32.9707H39.7603L62.7372 6.88721C65.1111 4.22025 63.2061 0 59.6306 0C58.429 0 57.3153 0.498224 56.524 1.40675L28.7114 32.9707Z" fill="#C7DAFF"/>
<path d="M29.8248 0L33.0193 1.31883L60.9198 32.9707H0.78125L29.8248 0Z" fill="#3366FF"/>
<path d="M0.752397 32.9707H10.16L33.1369 6.88721C35.4815 4.22025 33.5766 0 30.0011 0C28.7995 0 27.6858 0.498224 26.8945 1.40675L0.19556 31.7398C-0.244049 32.2087 0.107637 32.9707 0.752397 32.9707Z" fill="#C7DAFF"/>
</svg>
