<svg width="28" height="32" viewBox="0 0 28 32" fill="none" xmlns="http://www.w3.org/2000/svg">
<g clip-path="url(#clip0_26_187)">
<path opacity="0.4" d="M11.9594 25.9231L13 21.5L11 18H17L15 21.5L16.0406 25.9231L14 30L11.9594 25.9231ZM14 16C15.5823 16 17.129 15.5308 18.4446 14.6518C19.7602 13.7727 20.7855 12.5233 21.391 11.0615C21.9965 9.59966 22.155 7.99113 21.8463 6.43928C21.5376 4.88743 20.7757 3.46197 19.6569 2.34315C18.538 1.22433 17.1126 0.462403 15.5607 0.153721C14.0089 -0.15496 12.4003 0.00346625 10.9385 0.608967C9.47672 1.21447 8.22729 2.23985 7.34824 3.55544C6.46919 4.87104 6 6.41775 6 8C6 10.1217 6.84285 12.1566 8.34315 13.6569C9.84344 15.1572 11.8783 16 14 16Z" fill="#2E5BFF"/>
<path d="M19.9875 18.0376L14 30.0001L8.0125 18.0376C3.55625 18.2501 0 21.8938 0 26.4001V29.0001C0 29.7957 0.31607 30.5588 0.87868 31.1214C1.44129 31.684 2.20435 32.0001 3 32.0001H25C25.7956 32.0001 26.5587 31.684 27.1213 31.1214C27.6839 30.5588 28 29.7957 28 29.0001V26.4001C28 21.8938 24.4437 18.2501 19.9875 18.0376Z" fill="#2E5BFF"/>
</g>
<defs>
<clipPath id="clip0_26_187">
<rect width="28" height="32" fill="white"/>
</clipPath>
</defs>
</svg>
